<svg version="1.0" xmlns="http://www.w3.org/2000/svg" width="180" height="225.333" viewBox="0 0 135 169">
  <path d="M48 36.3c-14.2 7.2-27.5 15.2-30.1 18.3-1 1.3-.9 2.8.9 8.7 1.2 4 3.3 10.7 4.6 14.9l2.3 7.8-5.2 2.9c-13.7 7.7-17.1 22.2-7.9 32.9 7.6 9 25 9.7 26.9 1.3.9-4-1.2-8-5.5-10.8-6.9-4.4-8-5.4-8-7.2 0-1.6 2.9-5.1 4.2-5.1.3 0 1.3 1.8 2.3 4 1.2 2.6 3.4 5 6.4 6.9 2.5 1.6 8 5.3 12.1 8.2 8.2 5.7 35.8 19.9 38.7 19.9.9 0 5.5-2.6 10.1-5.7 7.2-5 8.5-5.6 10.2-4.5 1.1.7 2.7 1.2 3.5 1.2 4 0 12.5-7.8 12.5-11.4 0-1.1-.7-2.9-1.5-3.9-1.2-1.7-1-2.4 1.6-6 2.8-4.1 2.9-4.7 3.9-22.7.5-10.2 1-22.6 1-27.7v-9.1l-3.7-2.9c-4.1-3.1-7.6-5.3-19.2-11.6l-7.3-4-5.4 2.2-5.3 2.2-12.5-3C70.7 30.4 64.5 29 63.8 29c-.7.1-7.8 3.3-15.8 7.3m28.3-1.7c4.8.9 8.7 2 8.7 2.4 0 .9-11.5 8.7-16.9 11.4-5 2.6-12.8 8.5-13.4 10.1-.3.7.3 2.5 1.4 3.9 1.9 2.4 1.9 2.5 0 3.1-1.1.3-7-.5-13.2-1.9s-11.5-2.4-11.7-2.1c-.3.2.4.7 1.4 1.1 1 .3 9.1 4 17.9 8.1 8.8 4.2 19.2 9 23 10.8 11.4 5.4 12.3 5.4 21.8-.1 7.9-4.5 15.3-9.9 22.7-16.3 6.5-5.7.7-3.3-10.8 4.4C101 73.6 95.8 77 95.6 77c-.3 0-2.8 1.4-5.6 3.2l-5 3.1-2.8-2.5c-1.5-1.4-3.8-3.2-5.2-4.2-4-2.7-17-15.8-17-17.2 0-2.2 23.5-17.7 35-23 5.3-2.5 5.5-2.5 8.5-.8 4.9 2.9 16.8 11.9 19.5 14.8l2.5 2.8.3 25.3c.3 23.4.2 25.6-1.5 27.9-2.4 3.4-4.5 3.3-4.1-.2.3-2.3-.1-2.7-2.3-3-1.9-.2-4.6 1.1-9.5 4.9-8.1 6.1-10.3 8.6-10.4 11.6 0 1.8.6 2.3 2.5 2.3 1.5 0 2.5.6 2.5 1.4 0 1.9-10.8 8.6-13.8 8.6-6.2 0-41.8-17.9-49.6-24.9-1.6-1.4-3.9-4.9-5.1-7.6-2.7-6-10.7-37.8-10.3-40.8.4-2.9 13-11.7 31.3-22.2 4.7-2.6 8.8-4.3 10-4.1 1.1.3 5.9 1.2 10.8 2.2M28.8 90.2c2.1 2.1 1.3 4.8-2.3 8.2-2.7 2.6-3.5 4.1-3.5 6.9 0 4.2 1.3 5.6 8 9.3 5.7 3.1 7 5.6 4.4 8.5-2.2 2.5-10.5 2.6-15.4.1-4.1-2-7.7-7-8.6-12-1.3-6.6 3.5-15.3 11-19.7 4.8-2.9 4.8-2.9 6.4-1.3m88.5 21c1.8 1.1 3.8 2.8 4.5 3.6 1.4 1.8 1.6 6.2.3 6.2-.5 0-1.1.9-1.4 2s-1.4 2-2.4 2-2.4.5-3 1.1c-1.4 1.4-4.5-.2-8.4-4.4-3.5-3.8-3.2-7.1.9-10.4 3.4-2.9 5.5-2.9 9.5-.1"/>
</svg>
